<?xml version="1.0" encoding="utf-8"?>
<!-- Generator: Adobe Illustrator 19.2.0, SVG Export Plug-In . SVG Version: 6.00 Build 0)  -->
<svg width="166px" height="30px" version="1.1" id="Layer_1" xmlns:sketch="http://www.bohemiancoding.com/sketch/ns"
	 xmlns="http://www.w3.org/2000/svg" xmlns:xlink="http://www.w3.org/1999/xlink" x="0px" y="0px" viewBox="0 0 166 30"
	 style="enable-background:new 0 0 166 30;" xml:space="preserve">
<title>Logo</title>
<desc>Created with Sketch.</desc>
<g id="Drafts" sketch:type="MSPage">
	<g id="Case-page" transform="translate(-64.000000, -25.000000)" sketch:type="MSArtboardGroup">
		<g id="Logo" transform="translate(64.000000, 25.000000)" sketch:type="MSLayerGroup">
			<path id="Fill-1" sketch:type="MSShapeGroup" d="M10.9,12.3c-1.7,1.6-4.5,1.8-5.5,1.8H3.3c-0.3,0-0.6-0.3-0.6-0.6V3.3
				C2.7,3,3,2.7,3.3,2.7l1.7,0c2.6,0,4.6,0.7,5.9,1.9c1.5,1.6,1.5,3.7,1.5,3.7C12.4,10.1,12,11.4,10.9,12.3L10.9,12.3z M12.8,2.9
				c-1.7-1.7-4.1-2.7-7.3-2.8c-0.1,0-0.5,0-0.5,0l-3.8,0c-0.6,0-1.2,0.5-1.2,1.2v28.1c0,0.3,0.3,0.6,0.6,0.6h1.5
				c0.3,0,0.6-0.3,0.6-0.6v-12c0-0.3,0.3-0.6,0.6-0.6h2.1c1.3,0,4.9-0.2,7.3-2.5c1.5-1.4,2.3-3.4,2.3-5.8
				C15.1,8.3,15.2,5.3,12.8,2.9L12.8,2.9z"/>
			<path id="Fill-2" sketch:type="MSShapeGroup" d="M161.1,12.3c-1.7,1.6-4.5,1.8-5.5,1.8h-2.1c-0.3,0-0.6-0.3-0.6-0.6V3.3
				c0-0.3,0.3-0.6,0.6-0.6l1.7,0c2.6,0,4.6,0.7,5.9,1.9c1.5,1.6,1.5,3.7,1.5,3.7C162.6,10.1,162.1,11.4,161.1,12.3L161.1,12.3z
				 M163,2.9c-1.7-1.7-4.1-2.7-7.3-2.8c-0.1,0-0.5,0-0.5,0l-3.8,0c-0.6,0-1.2,0.5-1.2,1.2v28.1c0,0.3,0.3,0.6,0.6,0.6h1.5
				c0.3,0,0.6-0.3,0.6-0.6v-12c0-0.3,0.3-0.6,0.6-0.6h2.1c1.3,0,4.9-0.2,7.3-2.5c1.5-1.4,2.3-3.4,2.3-5.8
				C165.2,8.3,165.3,5.3,163,2.9L163,2.9z"/>
			<path id="Fill-3" sketch:type="MSShapeGroup" d="M20,15.6c0,0.3,0.1,0.6,0.3,0.9c1.6,2.2,9.4,13.2,9.4,13.2
				c0.1,0.2,0.3,0.3,0.5,0.3h1.7c0.5,0,0.8-0.6,0.5-1l-8.8-12.2c1.7-0.2,3.9-0.9,5.6-2.5c1.5-1.4,2.3-3.4,2.3-5.8
				c0-0.1,0.1-3.2-2.2-5.6c-1.7-1.7-4.1-2.7-7.3-2.8c-0.1,0-0.5,0-0.5,0l-3.8,0c-0.6,0-1.2,0.5-1.2,1.2v28.1c0,0.3,0.3,0.6,0.6,0.6
				h1.5c0.3,0,0.6-0.3,0.6-0.6v-26c0-0.3,0.3-0.6,0.6-0.6l1.7,0c2.6,0,4.6,0.7,5.9,1.9C29.1,6.2,29,8.3,29,8.4c0,1.7-0.5,3-1.5,3.9
				c-1.7,1.6-4.5,1.8-5.5,1.8h-0.5C20.7,14.1,20,14.8,20,15.6"/>
			<path id="Fill-4" sketch:type="MSShapeGroup" d="M148.6,1c0.2-0.4-0.1-0.9-0.5-0.9h-1.6c-0.2,0-0.4,0.1-0.5,0.3l-7,12.8
				c-0.1,0.2-0.4,0.2-0.5,0l-7-12.8c-0.1-0.2-0.3-0.3-0.5-0.3h-1.6c-0.4,0-0.7,0.5-0.5,0.9l8.5,15.6c0,0,0,0.1,0,0.1v12.6
				c0,0.3,0.3,0.6,0.6,0.6h1.4c0.3,0,0.6-0.3,0.6-0.6V16.7c0-0.1,0-0.1,0-0.1L148.6,1"/>
			<path id="Fill-5" sketch:type="MSShapeGroup" d="M127.2,0.7c0-0.3-0.3-0.6-0.6-0.6l-27.2,0c-1.3,0-2.3,1-2.4,2.2
				c-0.1,1,0.4,2.3,1.8,2.7l0,0c0,0,0.1,0,0.1,0c0,0,0,0,0,0l0,0c4.9,1.3,8.5,5.7,8.5,11c0,6.2-5.1,11.3-11.3,11.3
				c-6.2,0-11.3-5.1-11.3-11.3c0-5.3,3.6-9.7,8.5-11l0,0c1.4-0.3,2-1.6,1.9-2.7c-0.1-1.3-1.2-2.2-2.4-2.2H63.6
				c-0.6,0-1.2,0.5-1.2,1.2l0,9.6c-1.8-6.4-8-11.1-15.1-10.8c-7.5,0.4-13.7,6.5-14.1,14c-0.5,8.6,6.4,15.8,14.9,15.8
				c7.3,0,13.3-5.3,14.6-12.2c0-0.1,0-0.2,0-0.3c0.1-0.4-0.2-0.7-0.6-0.7h-1.5c-0.3,0-0.5,0.2-0.6,0.5c0,0.1,0,0.2-0.1,0.3
				c-1.2,5.7-6.3,10-12.3,9.8c-6.3-0.2-11.5-5.4-11.8-11.7c-0.3-7,5.3-12.8,12.2-12.8c5.5,0,10.2,3.7,11.7,8.7
				c0,0.1,0.2,0.8,0.2,0.8c0.3,1.1,1.3,1.9,2.4,1.9h0c0.7,0,1.3-0.3,1.8-0.7c0.5-0.5,0.7-1.1,0.7-1.8l0-8.3c0-0.3,0.3-0.6,0.6-0.6h6
				c0.3,0,0.6,0.3,0.6,0.6v26c0,0.3,0.3,0.6,0.6,0.6h1.4c0.3,0,0.6-0.3,0.6-0.6v-26c0-0.3,0.3-0.6,0.6-0.6l16.1,0
				C86,4.6,82,9.8,82,16c0,7.7,6.3,14,14,14c7.7,0,14-6.3,14-14c0-6.1-4-11.4-9.5-13.3l16.2,0c0.3,0,0.6,0.3,0.6,0.6v26
				c0,0.3,0.3,0.6,0.6,0.6h1.4c0.3,0,0.6-0.3,0.6-0.6l0-26c0-0.3,0.3-0.6,0.6-0.6h6c0.3,0,0.6-0.3,0.6-0.6L127.2,0.7"/>
		</g>
	</g>
</g>
</svg>
